HIERARCHY
ROOT Hips
{
	OFFSET 0.000000 0.000000 0.000000
	CHANNELS 6 Xposition Yposition Zposition Xrotation Yrotation Zrotation
	JOINT LeftUpLeg_virtual
	{
		OFFSET 0.000000 0.000000 0.000000
		CHANNELS 3 Xrotation Yrotation Zrotation
		JOINT LeftUpLeg
		{
			OFFSET 13.026900 -6.336304 -1.092800
			CHANNELS 3 Xrotation Yrotation Zrotation
			JOINT LeftLeg
			{
				OFFSET 0.524474 -46.096886 9.782700
				CHANNELS 3 Xrotation Yrotation Zrotation
				JOINT LeftFoot
				{
					OFFSET -0.524474 -53.427422 -12.948200
					CHANNELS 3 Xrotation Yrotation Zrotation
					JOINT LeftToeBase
					{
						OFFSET 0.192200 -14.009700 16.364100
						CHANNELS 3 Xrotation Yrotation Zrotation
						JOINT LeftToe_End
						{
							OFFSET -1.784700 -0.561700 9.474800
							CHANNELS 3 Xrotation Yrotation Zrotation
							End Site
							{
								OFFSET 0 0 0
							}
						}
					}
				}
			}
		}
	}
	JOINT RightUpLeg_virtual
	{
		OFFSET 0.000000 0.000000 0.000000
		CHANNELS 3 Xrotation Yrotation Zrotation
		JOINT RightUpLeg
		{
			OFFSET -12.883000 -6.336304 -1.092800
			CHANNELS 3 Xrotation Yrotation Zrotation
			JOINT RightLeg
			{
				OFFSET -0.524587 -46.096825 9.782800
				CHANNELS 3 Xrotation Yrotation Zrotation
				JOINT RightFoot
				{
					OFFSET 0.524587 -53.427383 -12.948300
					CHANNELS 3 Xrotation Yrotation Zrotation
					JOINT RightToeBase
					{
						OFFSET -0.192200 -14.009700 16.364100
						CHANNELS 3 Xrotation Yrotation Zrotation
						JOINT RightToe_End
						{
							OFFSET 1.784700 -0.561700 9.474800
							CHANNELS 3 Xrotation Yrotation Zrotation
							End Site
							{
								OFFSET 0 0 0
							}
						}
					}
				}
			}
		}
	}
	JOINT Spine_virtual
	{
		OFFSET 0.000000 0.000000 0.000000
		CHANNELS 3 Xrotation Yrotation Zrotation
		JOINT Spine
		{
			OFFSET 0.072000 7.257294 -0.789700
			CHANNELS 3 Xrotation Yrotation Zrotation
			JOINT Spine1
			{
				OFFSET 0.000000 12.508769 -0.658067
				CHANNELS 3 Xrotation Yrotation Zrotation
				JOINT Spine1_split
				{
					OFFSET 0.000000 12.508769 -0.658067
					CHANNELS 3 Xrotation Yrotation Zrotation
					JOINT Spine2
					{
						OFFSET 0.000000 12.508769 -0.658067
						CHANNELS 3 Xrotation Yrotation Zrotation
						JOINT Neck_virtual
						{
							OFFSET 0.000000 0.000000 0.000000
							CHANNELS 3 Xrotation Yrotation Zrotation
							JOINT Neck
							{
								OFFSET 0.000000 14.033295 7.520400
								CHANNELS 3 Xrotation Yrotation Zrotation
								JOINT Head
								{
									OFFSET 0.000000 8.198502 5.703100
									CHANNELS 3 Xrotation Yrotation Zrotation
									JOINT HeadTop_End
									{
										OFFSET 0.000000 17.760803 13.332701
										CHANNELS 3 Xrotation Yrotation Zrotation
										End Site
										{
											OFFSET 0 0 0
										}
									}
								}
							}
						}
						JOINT LeftShoulder_virtual
						{
							OFFSET 0.000000 0.000000 0.000000
							CHANNELS 3 Xrotation Yrotation Zrotation
							JOINT LeftShoulder
							{
								OFFSET 6.292450 5.785301 -0.669000
								CHANNELS 3 Xrotation Yrotation Zrotation
								JOINT LeftShoulder_split
								{
									OFFSET 6.292450 5.785301 -0.669000
									CHANNELS 3 Xrotation Yrotation Zrotation
									JOINT LeftArm
									{
										OFFSET 13.907140 -6.093903 1.965100
										CHANNELS 3 Xrotation Yrotation Zrotation
										JOINT LeftForeArm
										{
											OFFSET 34.140198 0.000000 0.000000
											CHANNELS 3 Xrotation Yrotation Zrotation
											JOINT LeftHand
											{
												OFFSET 40.960209 0.000000 0.000000
												CHANNELS 3 Xrotation Yrotation Zrotation
												End Site
												{
													OFFSET 0 0 0
												}
											}
										}
									}
								}
							}
						}
						JOINT RightShoulder_virtual
						{
							OFFSET 0.000000 0.000000 0.000000
							CHANNELS 3 Xrotation Yrotation Zrotation
							JOINT RightShoulder
							{
								OFFSET -6.292450 5.785301 -0.669000
								CHANNELS 3 Xrotation Yrotation Zrotation
								JOINT RightShoulder_split
								{
									OFFSET -6.292450 5.785301 -0.669000
									CHANNELS 3 Xrotation Yrotation Zrotation
									JOINT RightArm
									{
										OFFSET -13.907140 -6.093903 1.965100
										CHANNELS 3 Xrotation Yrotation Zrotation
										JOINT RightForeArm
										{
											OFFSET -34.140198 0.000000 0.000000
											CHANNELS 3 Xrotation Yrotation Zrotation
											JOINT RightHand
											{
												OFFSET -40.960209 0.000000 0.000000
												CHANNELS 3 Xrotation Yrotation Zrotation
												End Site
												{
													OFFSET 0 0 0
												}
											}
										}
									}
								}
							}
						}
					}
				}
			}
		}
	}
}
MOTION
Frames: 10
Frame Time: 0.03333333
0.250869 109.213066 5.698929 0.000000 0.000000 0.000000 24.003255 12.256860 2.054157 -43.116881 11.715563 17.200085 31.692638 6.923757 -4.908995 3.416480 25.238415 -16.047535 -5.584233 -0.346546 -0.302001 0.000000 0.000000 0.000000 25.701481 11.008430 2.098217 -54.424505 -10.117563 -10.876737 32.378105 6.184709 -2.648433 -1.415625 -8.983419 1.904565 0.708622 0.408289 0.418302 0.000000 0.000000 0.000000 22.843993 10.803903 3.421412 12.251815 -0.853898 1.698165 8.728770 2.179466 -2.931167 0.497079 -0.414090 0.572223 0.000000 0.000000 0.000000 9.605175 2.158756 -3.354092 -7.695572 5.538793 0.032085 -23.420025 -2.384529 -9.445530 0.000000 0.000000 0.000000 10.697107 1.973888 -2.780017 1.537967 4.321414 -8.769517 -0.239069 -2.669042 -1.389075 -28.801432 -1.220517 -58.230949 2.066485 -41.737275 -0.117431 0.000000 0.000000 0.000000 9.308788 1.606406 -3.045739 4.263765 23.134346 3.577522 -0.225817 4.833175 -0.473263 -20.734332 -14.339625 62.832242 -0.220453 36.375457 0.997461 0.000000 0.000000 0.000000 
0.675920 110.391205 8.149082 0.000000 0.000000 0.000000 23.443888 11.981749 2.266905 -43.401341 10.854957 16.005138 29.216950 8.006088 -4.762528 3.771156 25.591590 -15.139555 -4.821410 -0.335532 -0.397382 0.000000 0.000000 0.000000 25.822124 10.416283 2.275023 -52.538969 -10.352956 -11.350009 30.945869 5.956598 -2.699848 -1.074292 -9.360986 1.350812 -0.131108 0.365067 0.639399 0.000000 0.000000 0.000000 23.324626 10.765078 3.245179 11.747644 -0.230561 2.088311 8.695145 2.420955 -2.804490 0.331886 0.800885 1.097846 0.000000 0.000000 0.000000 9.534253 2.325286 -3.278083 -7.385180 4.965510 -0.114914 -23.622344 -2.482416 -9.645041 0.000000 0.000000 0.000000 10.603251 2.144015 -2.710688 1.572405 4.931928 -8.299865 -1.210155 -0.876311 -1.455264 -27.212563 1.114100 -57.002450 1.403996 -40.242006 -0.444819 0.000000 0.000000 0.000000 9.400159 1.836467 -2.993548 4.488786 22.917969 3.535041 -1.093236 4.611736 -1.586024 -21.710525 -16.531617 61.991207 -0.271540 36.204804 1.086481 0.000000 0.000000 0.000000 
1.258485 111.690964 11.392578 0.000000 0.000000 0.000000 22.504071 13.290247 2.533877 -44.020019 9.946442 13.817360 26.190121 8.653874 -4.533279 5.422437 25.367244 -15.562115 -3.109155 -0.396187 -0.367349 0.000000 0.000000 0.000000 25.134920 10.989383 2.552171 -49.536712 -11.419206 -12.788836 29.802803 5.656090 -2.629665 -1.707058 -10.071832 0.812022 -1.790630 0.345816 0.840426 0.000000 0.000000 0.000000 23.559016 11.260584 3.261326 11.396917 0.933182 2.657526 8.690874 2.965160 -2.350566 0.386271 1.077735 0.987453 0.000000 0.000000 0.000000 9.535933 2.802655 -2.798408 -7.205463 4.173824 -0.737222 -24.550726 -2.592861 -10.447311 0.000000 0.000000 0.000000 10.391323 2.634956 -2.321718 1.537752 4.884823 -8.122088 -1.568800 0.425510 -1.250091 -23.723812 4.074359 -54.905425 0.764512 -39.708326 -0.723475 0.000000 0.000000 0.000000 9.481217 2.382474 -2.570251 4.782849 22.465565 2.962833 -1.807842 4.373741 -2.321474 -24.253653 -18.747517 59.754689 -0.545630 37.025130 1.309479 0.000000 0.000000 0.000000 
1.894317 112.320877 15.133251 0.000000 0.000000 0.000000 21.273304 15.256945 2.865480 -44.895192 9.286347 11.219747 23.842729 8.726499 -4.324112 7.611421 24.525838 -16.851055 -1.989511 -0.553686 0.041928 0.000000 0.000000 0.000000 23.803025 12.413529 2.907346 -46.360285 -13.224465 -14.755635 29.607019 5.468272 -2.381341 -3.167229 -10.918857 0.741376 -3.518376 0.369622 0.928430 0.000000 0.000000 0.000000 23.158762 12.549024 3.339438 11.284823 2.453666 3.274641 8.676276 3.698633 -1.683762 0.548371 0.596505 0.682976 0.000000 0.000000 0.000000 9.615795 3.498790 -2.010215 -7.283811 3.233711 -1.627956 -25.969803 -2.887645 -11.628656 0.000000 0.000000 0.000000 10.071727 3.379634 -1.673689 1.500547 4.137738 -8.072490 -1.227265 0.764195 -0.899507 -19.395692 6.623214 -52.976873 0.375751 -40.276861 -0.866325 0.000000 0.000000 0.000000 9.541540 3.160421 -1.870651 5.030743 22.021093 2.004985 -2.551066 4.182165 -2.612022 -27.980802 -19.800300 56.432461 -0.873603 38.387265 1.512847 0.000000 0.000000 0.000000 
2.400720 111.843605 19.243622 0.000000 0.000000 0.000000 19.867569 17.212205 3.212307 -45.827813 9.141137 8.808421 22.849440 8.573437 -4.243306 8.564850 23.451813 -17.349804 -2.344988 -0.750294 0.749818 0.000000 0.000000 0.000000 22.380874 14.136772 3.193485 -43.543183 -15.644412 -16.524118 30.431259 5.450201 -2.053706 -5.817942 -11.910677 1.213831 -4.698906 0.436669 0.795407 0.000000 0.000000 0.000000 22.130320 14.418534 3.303134 11.355049 4.182909 3.914297 8.620687 4.508411 -0.894731 0.337610 0.547581 0.281483 0.000000 0.000000 0.000000 9.703931 4.285385 -1.075638 -7.649111 2.160358 -2.540785 -27.494805 -3.547873 -12.819794 0.000000 0.000000 0.000000 9.688342 4.252316 -0.863391 1.503182 2.972487 -8.030226 -0.823303 0.523753 -0.466444 -14.959593 8.211485 -51.842696 0.373146 -41.588223 -0.781094 0.000000 0.000000 0.000000 9.534365 4.050682 -1.024796 5.125524 21.770342 0.997964 -2.976425 3.989698 -2.786663 -32.333299 -18.771609 52.571809 -1.069251 39.897915 1.535324 0.000000 0.000000 0.000000 
2.836004 110.259857 23.692455 0.000000 0.000000 0.000000 18.420646 18.827690 3.376798 -46.538983 9.588699 7.230793 23.488814 8.377771 -4.362263 7.471453 22.532767 -16.214347 -3.357351 -0.913012 1.211064 0.000000 0.000000 0.000000 20.992516 16.083504 3.123694 -40.809182 -18.353661 -17.460774 32.056502 5.568538 -1.844214 -10.012394 -13.120927 1.858328 -4.815913 0.537682 0.462826 0.000000 0.000000 0.000000 20.574642 16.148881 3.041337 11.460344 5.948268 4.522454 8.451061 5.274554 -0.109216 0.758232 0.811387 -0.076117 0.000000 0.000000 0.000000 9.674859 5.021514 -0.196902 -8.240463 1.062317 -3.259492 -28.805602 -4.730437 -13.589566 0.000000 0.000000 0.000000 9.235286 5.105723 -0.014616 1.547799 1.615256 -7.722691 -0.557356 -0.127108 -0.071069 -10.650565 8.494413 -51.420297 0.643771 -43.426855 -0.485230 0.000000 0.000000 0.000000 9.433730 4.907293 -0.215853 5.020978 21.755922 0.151592 -3.005270 4.064416 -2.939096 -36.205767 -15.158804 49.181897 -0.944763 41.367813 1.242141 0.000000 0.000000 0.000000 
3.113455 108.260117 28.250456 0.000000 0.000000 0.000000 17.020316 20.095545 3.152232 -46.881093 9.994358 6.563334 25.391283 8.292185 -4.643864 4.983204 21.895988 -13.743995 -3.893762 -0.924876 1.099940 0.000000 0.000000 0.000000 19.765910 18.100293 2.534990 -37.462969 -20.907622 -17.193061 34.263996 5.645942 -1.797229 -15.168503 -14.572405 2.135141 -3.653731 0.655615 0.061050 0.000000 0.000000 0.000000 18.785073 17.587288 2.411408 11.361777 7.558543 5.040331 8.133745 5.898260 0.517607 1.403516 1.752066 -0.378096 0.000000 0.000000 0.000000 9.428543 5.602099 0.474483 -8.760612 -0.005422 -3.631372 -29.561537 -6.468683 -13.581027 0.000000 0.000000 0.000000 8.676862 5.804997 0.661124 1.634787 0.409111 -7.079812 -0.276907 -1.198417 0.265201 -6.252388 7.928453 -51.122596 1.035823 -45.454837 -0.083752 0.000000 0.000000 0.000000 9.162482 5.571781 0.384519 4.739686 21.651309 -0.500261 -2.957692 4.239530 -2.947209 -38.710114 -9.313783 46.695975 -0.493965 43.221236 0.640454 0.000000 0.000000 0.000000 
3.231277 106.664749 32.184776 0.000000 0.000000 0.000000 15.751096 21.139613 2.478108 -46.412426 9.889235 6.823584 27.617358 8.144779 -5.029843 2.644834 21.246680 -10.785588 -4.098775 -0.753087 0.639728 0.000000 0.000000 0.000000 18.532605 19.935883 1.652106 -33.480249 -22.762857 -15.710530 36.507959 5.631602 -1.885853 -19.757900 -16.055524 2.285368 -2.033713 0.723826 -0.233486 0.000000 0.000000 0.000000 17.021665 18.857049 1.548550 10.871607 8.786363 5.372880 7.653455 6.259027 0.844178 1.452487 2.988608 -0.242139 0.000000 0.000000 0.000000 8.890990 5.931504 0.819523 -8.925915 -0.945176 -3.716369 -29.573954 -8.612717 -12.540577 0.000000 0.000000 0.000000 7.967679 6.236074 1.002263 1.722982 -0.451088 -6.159205 -0.301400 -2.434447 0.322739 -1.552709 7.546119 -50.164895 1.217472 -47.822362 0.292852 0.000000 0.000000 0.000000 8.597069 5.937645 0.692178 4.335574 21.152901 -1.002744 -2.606102 4.401709 -2.783761 -39.424528 -2.453550 45.133924 0.166562 45.997906 -0.168162 0.000000 0.000000 0.000000 
3.451838 106.025452 35.831047 0.000000 0.000000 0.000000 14.585242 21.907880 1.599924 -44.670021 9.250882 7.811292 29.135395 7.843525 -5.483649 1.694875 20.350320 -8.304507 -4.477907 -0.495596 0.222098 0.000000 0.000000 0.000000 17.085580 21.274429 0.803935 -29.439355 -23.654902 -13.652544 38.246119 5.742780 -2.041181 -21.750802 -17.216489 3.194694 -1.499878 0.721500 -0.285066 0.000000 0.000000 0.000000 15.259853 20.119072 0.778681 9.993829 9.425605 5.384285 7.023923 6.277219 0.819186 1.704627 3.540963 0.128354 0.000000 0.000000 0.000000 8.059845 5.975678 0.799057 -8.626520 -1.692234 -3.679099 -28.753058 -10.884362 -10.430984 0.000000 0.000000 0.000000 7.147370 6.325463 0.956411 1.761143 -1.000716 -5.031031 -0.858037 -3.583708 -0.255946 2.975809 8.198323 -47.841568 0.907622 -50.696656 0.451204 0.000000 0.000000 0.000000 7.737046 5.984233 0.671069 3.899477 20.205486 -1.456132 -2.187419 4.443567 -2.511302 -38.204950 4.007098 44.148113 0.892540 49.935093 -1.009693 0.000000 0.000000 0.000000 
3.833947 106.569473 39.290810 0.000000 0.000000 0.000000 13.521007 22.551490 0.848567 -41.549239 8.354646 9.052699 29.259622 7.671233 -5.961559 2.153402 19.321652 -6.514491 -4.949930 -0.232848 -0.007876 0.000000 0.000000 0.000000 15.619041 22.307627 0.161019 -25.718654 -23.743493 -11.695391 39.014088 6.056592 -2.233306 -20.476668 -17.917260 5.174231 -3.171688 0.642679 -0.073373 0.000000 0.000000 0.000000 13.643381 21.318670 0.238152 8.939259 9.448936 5.025939 6.303170 5.976311 0.483073 1.467575 3.344784 0.249318 0.000000 0.000000 0.000000 7.069645 5.735949 0.484846 -7.877873 -2.236568 -3.681768 -27.031869 -12.906959 -7.467913 0.000000 0.000000 0.000000 6.236134 6.109280 0.558824 1.695898 -1.229470 -3.996698 -1.565939 -4.114554 -0.939728 6.284755 10.166464 -44.022502 0.299681 -54.163209 0.379957 0.000000 0.000000 0.000000 6.684054 5.732439 0.366789 3.479978 18.931848 -1.914878 -1.781262 3.931923 -1.981922 -35.221377 8.962057 43.149829 1.458291 54.938418 -1.679104 0.000000 0.000000 0.000000 
